<svg id="Layer_1" data-name="Layer 1" xmlns="http://www.w3.org/2000/svg" width="270.19" height="281" viewBox="0 0 270.19 281"><defs><style>.cls-1{fill:#56a1d5;}.cls-2{fill:#242d3c;}.cls-3{fill:#e6e5e5;}.cls-4{fill:#c93;}.cls-5{fill:#3f597c;}.cls-6{fill:none;stroke:#3f597c;stroke-miterlimit:10;}</style></defs><title>Molecule</title><path class="cls-1" d="M117.81,56.89a5.6,5.6,0,1,1-5.6-5.6,5.6,5.6,0,0,1,5.6,5.6"/><path class="cls-2" d="M13.07,115a6.54,6.54,0,1,1-6.54-6.54A6.54,6.54,0,0,1,13.07,115"/><path class="cls-3" d="M52.2,138.23A4.2,4.2,0,1,1,48,134a4.2,4.2,0,0,1,4.2,4.2"/><path class="cls-3" d="M139.76,9.34A9.34,9.34,0,1,1,130.42,0a9.34,9.34,0,0,1,9.34,9.34"/><path class="cls-1" d="M270.18,146.63A12.14,12.14,0,1,1,258,134.49a12.14,12.14,0,0,1,12.14,12.14"/><path class="cls-4" d="M116.42,83.6a46.69,46.69,0,1,0,46.69,46.69A46.69,46.69,0,0,0,116.42,83.6m0,70a23.35,23.35,0,1,1,23.35-23.35,23.34,23.34,0,0,1-23.35,23.35"/><path class="cls-3" d="M267.13,243a38,38,0,1,1-38-38,38,38,0,0,1,38,38"/><path class="cls-4" d="M74.2,196.63a24.12,24.12,0,1,1-24.12-24.12A24.12,24.12,0,0,1,74.2,196.63"/><path class="cls-5" d="M233,43.61A29.88,29.88,0,1,1,203.1,13.72,29.88,29.88,0,0,1,233,43.61"/><circle class="cls-6" cx="203.1" cy="43.61" r="29.88"/><path class="cls-3" d="M71.4,70.71A14.55,14.55,0,1,1,56.85,56.16,14.55,14.55,0,0,1,71.4,70.71"/><path class="cls-5" d="M199.74,130.29a9.69,9.69,0,1,1-9.69-9.69,9.69,9.69,0,0,1,9.69,9.69"/><circle class="cls-6" cx="190.06" cy="130.29" r="9.69"/><path class="cls-1" d="M136,242.65A11.69,11.69,0,1,1,124.35,231,11.69,11.69,0,0,1,136,242.65"/><path class="cls-2" d="M71.2,86.82A1.73,1.73,0,0,1,70,86.31a1.75,1.75,0,1,1,3-1.24,1.75,1.75,0,0,1-1.75,1.75"/><path class="cls-2" d="M75.27,90.89a1.75,1.75,0,1,1,1.24-.51,1.74,1.74,0,0,1-1.24.51"/><path class="cls-2" d="M79.34,95a1.75,1.75,0,1,1,1.24-.51,1.74,1.74,0,0,1-1.24.51"/><path class="cls-2" d="M168.86,132a1.75,1.75,0,1,1,1.75-1.75,1.75,1.75,0,0,1-1.75,1.75"/><path class="cls-2" d="M174.62,132a1.75,1.75,0,1,1,1.75-1.75,1.74,1.74,0,0,1-1.75,1.75"/><path class="cls-2" d="M71.2,177.25a1.75,1.75,0,1,1,1.24-.51,1.73,1.73,0,0,1-1.24.51"/><path class="cls-2" d="M75.27,173.19a1.75,1.75,0,1,1,1.24-.51,1.74,1.74,0,0,1-1.24.51"/><path class="cls-2" d="M79.33,169.12a1.75,1.75,0,1,1,1.24-.51,1.74,1.74,0,0,1-1.24.51"/><path class="cls-2" d="M177.9,70.55a1.75,1.75,0,1,1,1.24-3,1.75,1.75,0,0,1,0,2.47,1.73,1.73,0,0,1-1.24.51"/><path class="cls-2" d="M173.84,74.62a1.75,1.75,0,1,1,1.24-.51,1.74,1.74,0,0,1-1.24.51"/><path class="cls-2" d="M169.77,78.69a1.75,1.75,0,1,1,1.24-.51,1.74,1.74,0,0,1-1.24.51"/><path class="cls-2" d="M165.7,82.75a1.75,1.75,0,1,1,1.24-.51,1.74,1.74,0,0,1-1.24.51"/><path class="cls-2" d="M161.64,86.82a1.75,1.75,0,1,1,1.24-3,1.75,1.75,0,0,1-1.24,3"/><path class="cls-2" d="M157.57,90.89a1.73,1.73,0,0,1-1.24-.51,1.75,1.75,0,1,1,1.24.51"/><path class="cls-2" d="M153.5,95a1.75,1.75,0,1,1,1.24-.51,1.74,1.74,0,0,1-1.24.51"/><path class="cls-2" d="M153.5,169.12a1.73,1.73,0,0,1-1.24-.51,1.75,1.75,0,1,1,3-1.24,1.75,1.75,0,0,1-1.75,1.75"/><path class="cls-2" d="M157.57,173.19a1.75,1.75,0,1,1,1.24-.51,1.74,1.74,0,0,1-1.24.51"/><path class="cls-2" d="M161.64,177.25a1.75,1.75,0,1,1,1.24-.51,1.74,1.74,0,0,1-1.24.51"/><path class="cls-2" d="M165.7,181.32a1.75,1.75,0,1,1,1.24-.51,1.74,1.74,0,0,1-1.24.51"/><path class="cls-2" d="M169.77,185.39a1.75,1.75,0,1,1,1.24-.51,1.74,1.74,0,0,1-1.24.51"/><path class="cls-2" d="M173.84,189.45a1.75,1.75,0,1,1,1.24-.51,1.74,1.74,0,0,1-1.24.51"/><path class="cls-2" d="M177.9,193.52a1.75,1.75,0,1,1,1.24-.51,1.74,1.74,0,0,1-1.24.51"/><path class="cls-2" d="M182,197.59a1.74,1.74,0,0,1-1.24-.51,1.75,1.75,0,1,1,3-1.24,1.75,1.75,0,0,1-1.75,1.75"/><path class="cls-2" d="M186,201.65a1.75,1.75,0,1,1,1.24-.51,1.74,1.74,0,0,1-1.24.51"/><path class="cls-2" d="M190.1,205.72a1.73,1.73,0,0,1-1.24-.51,1.75,1.75,0,1,1,1.24.51"/><path class="cls-2" d="M194.17,209.79a1.75,1.75,0,1,1,1.24-.51,1.74,1.74,0,0,1-1.24.51"/><path class="cls-2" d="M198.24,213.85a1.75,1.75,0,1,1,1.24-.51,1.74,1.74,0,0,1-1.24.51"/></svg>